<svg width="25" height="24" viewBox="0 0 25 24" fill="none" xmlns="http://www.w3.org/2000/svg">
<path fill-rule="evenodd" clip-rule="evenodd" d="M11.6134 11.2119L10.5664 14.5589L13.9124 13.5109L14.9604 10.1639L11.6134 11.2119ZM9.42243 16.4519C9.22643 16.4519 9.03443 16.3749 8.89143 16.2329C8.69443 16.0349 8.62243 15.7439 8.70643 15.4789L10.2994 10.3899C10.3724 10.1539 10.5564 9.97089 10.7904 9.89789L15.8794 8.30489C16.1464 8.21989 16.4364 8.29289 16.6344 8.48989C16.8314 8.68789 16.9034 8.97889 16.8194 9.24389L15.2274 14.3329C15.1544 14.5679 14.9694 14.7519 14.7354 14.8249L9.64643 16.4179C9.57243 16.4409 9.49643 16.4519 9.42243 16.4519Z" fill="#9E9E9E"/>
<mask id="mask0_7426_10074" style="mask-type:luminance" maskUnits="userSpaceOnUse" x="2" y="2" width="22" height="21">
<path fill-rule="evenodd" clip-rule="evenodd" d="M2.40234 2H23.1241V22.7217H2.40234V2Z" fill="white"/>
</mask>
<g mask="url(#mask0_7426_10074)">
<path fill-rule="evenodd" clip-rule="evenodd" d="M12.7633 3.5C7.87734 3.5 3.90234 7.476 3.90234 12.361C3.90234 17.247 7.87734 21.222 12.7633 21.222C17.6493 21.222 21.6243 17.247 21.6243 12.361C21.6243 7.476 17.6493 3.5 12.7633 3.5ZM12.7633 22.722C7.05034 22.722 2.40234 18.074 2.40234 12.361C2.40234 6.648 7.05034 2 12.7633 2C18.4763 2 23.1243 6.648 23.1243 12.361C23.1243 18.074 18.4763 22.722 12.7633 22.722Z" fill="#9E9E9E"/>
</g>
</svg>
