<svg width="19" height="17" viewBox="0 0 19 17" fill="none" xmlns="http://www.w3.org/2000/svg">
<path fill-rule="evenodd" clip-rule="evenodd" d="M9.81346 9.72068C9.25596 9.72068 8.70012 9.53651 8.23512 9.16818L4.49762 6.15485C4.22846 5.93818 4.18679 5.54401 4.40262 5.27568C4.62012 5.00818 5.01346 4.96568 5.28179 5.18151L9.01596 8.19151C9.48512 8.56318 10.146 8.56318 10.6185 8.18818L14.3151 5.18318C14.5835 4.96401 14.9768 5.00568 15.1951 5.27401C15.4126 5.54151 15.3718 5.93485 15.1043 6.15318L11.401 9.16318C10.9326 9.53485 10.3726 9.72068 9.81346 9.72068" fill="#212121"/>
<mask id="mask0_7218_4182" style="mask-type:luminance" maskUnits="userSpaceOnUse" x="0" y="0" width="19" height="17">
<path fill-rule="evenodd" clip-rule="evenodd" d="M0.833008 0.166687H18.7496V16.4167H0.833008V0.166687Z" fill="white"/>
</mask>
<g mask="url(#mask0_7218_4182)">
<path fill-rule="evenodd" clip-rule="evenodd" d="M5.69884 15.1667H13.8822C13.8838 15.165 13.8905 15.1667 13.8955 15.1667C14.8463 15.1667 15.6897 14.8267 16.3363 14.1809C17.0872 13.4334 17.4997 12.3592 17.4997 11.1567V5.43335C17.4997 3.10585 15.978 1.41669 13.8822 1.41669H5.70051C3.60467 1.41669 2.08301 3.10585 2.08301 5.43335V11.1567C2.08301 12.3592 2.49634 13.4334 3.24634 14.1809C3.89301 14.8267 4.73717 15.1667 5.68717 15.1667H5.69884ZM5.68467 16.4167C4.39884 16.4167 3.25051 15.95 2.36384 15.0667C1.37634 14.0817 0.833008 12.6934 0.833008 11.1567V5.43335C0.833008 2.43085 2.92551 0.166687 5.70051 0.166687H13.8822C16.6572 0.166687 18.7497 2.43085 18.7497 5.43335V11.1567C18.7497 12.6934 18.2063 14.0817 17.2188 15.0667C16.333 15.9492 15.1838 16.4167 13.8955 16.4167H13.8822H5.70051H5.68467Z" fill="#212121"/>
</g>
</svg>
