<svg width="25" height="24" viewBox="0 0 25 24" fill="none" xmlns="http://www.w3.org/2000/svg">
<path fill-rule="evenodd" clip-rule="evenodd" d="M12.6016 3.5C7.91456 3.5 4.10156 7.313 4.10156 12C4.10156 16.687 7.91456 20.5 12.6016 20.5C17.2886 20.5 21.1016 16.687 21.1016 12C21.1016 7.313 17.2886 3.5 12.6016 3.5ZM12.6016 22C7.08756 22 2.60156 17.514 2.60156 12C2.60156 6.486 7.08756 2 12.6016 2C18.1156 2 22.6016 6.486 22.6016 12C22.6016 17.514 18.1156 22 12.6016 22Z" fill="#9E9E9E"/>
<path fill-rule="evenodd" clip-rule="evenodd" d="M16.0317 15.6925C15.9007 15.6925 15.7687 15.6585 15.6477 15.5875L11.8777 13.3385C11.6517 13.2025 11.5117 12.9575 11.5117 12.6935V7.84546C11.5117 7.43146 11.8477 7.09546 12.2617 7.09546C12.6767 7.09546 13.0117 7.43146 13.0117 7.84546V12.2675L16.4167 14.2975C16.7717 14.5105 16.8887 14.9705 16.6767 15.3265C16.5357 15.5615 16.2867 15.6925 16.0317 15.6925Z" fill="#9E9E9E"/>
</svg>
