<svg width="25" height="24" viewBox="0 0 25 24" fill="none" xmlns="http://www.w3.org/2000/svg">
<path fill-rule="evenodd" clip-rule="evenodd" d="M15.7088 16.885H9.89384C9.47984 16.885 9.14384 16.549 9.14384 16.135C9.14384 15.721 9.47984 15.385 9.89384 15.385H15.7088C16.1228 15.385 16.4588 15.721 16.4588 16.135C16.4588 16.549 16.1228 16.885 15.7088 16.885ZM20.0498 6.158C19.6868 5.838 19.2738 5.476 18.7818 5.021C18.5588 4.841 18.3148 4.635 18.0558 4.417C16.5958 3.186 14.5958 1.5 12.7728 1.5C10.9708 1.5 9.09984 3.092 7.59684 4.371C7.31884 4.607 7.05884 4.829 6.79384 5.044C6.32784 5.476 5.91484 5.839 5.55084 6.16C3.16384 8.261 2.71484 8.812 2.71484 13.713C2.71484 22.5 5.25584 22.5 12.8008 22.5C20.3448 22.5 22.8868 22.5 22.8868 13.713C22.8868 8.811 22.4378 8.26 20.0498 6.158Z" fill="#9E9E9E"/>
</svg>
