<svg width="25" height="24" viewBox="0 0 25 24" fill="none" xmlns="http://www.w3.org/2000/svg">
<path d="M17.5756 14.3756C17.3811 15.4619 16.8585 16.4625 16.0781 17.2428C15.2977 18.023 14.297 18.5454 13.2106 18.7397C13.1694 18.7463 13.1277 18.7497 13.0859 18.75C12.8978 18.7499 12.7166 18.6792 12.5782 18.5517C12.4397 18.4243 12.3543 18.2495 12.3387 18.0621C12.3231 17.8746 12.3786 17.6881 12.4941 17.5396C12.6096 17.3911 12.7766 17.2914 12.9622 17.2603C14.5156 16.9987 15.8337 15.6806 16.0972 14.1243C16.1305 13.9282 16.2404 13.7533 16.4027 13.6381C16.5649 13.5229 16.7663 13.477 16.9625 13.5103C17.1587 13.5436 17.3336 13.6535 17.4487 13.8158C17.5639 13.978 17.6099 14.1794 17.5766 14.3756H17.5756ZM20.5859 13.5C20.5859 15.688 19.7167 17.7864 18.1696 19.3336C16.6224 20.8808 14.524 21.75 12.3359 21.75C10.1479 21.75 8.04948 20.8808 6.50231 19.3336C4.95513 17.7864 4.08594 15.688 4.08594 13.5C4.08594 10.8825 5.11719 8.20591 7.14781 5.54528C7.21209 5.46104 7.29349 5.39137 7.38665 5.34086C7.47981 5.29036 7.58261 5.26018 7.68829 5.25229C7.79396 5.24441 7.9001 5.25901 7.99973 5.29513C8.09935 5.33125 8.19018 5.38807 8.26625 5.46184L10.5275 7.65653L12.59 1.9931C12.6312 1.88014 12.699 1.77875 12.7876 1.69746C12.8762 1.61618 12.983 1.55739 13.0991 1.52605C13.2152 1.49471 13.3371 1.49174 13.4546 1.51738C13.572 1.54303 13.6816 1.59654 13.7741 1.67341C15.8244 3.37497 20.5859 7.92653 20.5859 13.5ZM19.0859 13.5C19.0859 9.17903 15.7306 5.44497 13.6287 3.53153L11.5409 9.25684C11.4981 9.37444 11.4265 9.47943 11.3327 9.56227C11.2389 9.64511 11.1258 9.70315 11.0038 9.73111C10.8818 9.75907 10.7548 9.75605 10.6342 9.72234C10.5137 9.68863 10.4035 9.62529 10.3138 9.53809L7.84156 7.13997C6.34437 9.30091 5.58594 11.4375 5.58594 13.5C5.58594 15.2902 6.2971 17.0071 7.56297 18.2729C8.82884 19.5388 10.5457 20.25 12.3359 20.25C14.1261 20.25 15.843 19.5388 17.1089 18.2729C18.3748 17.0071 19.0859 15.2902 19.0859 13.5Z" fill="#212121"/>
</svg>
