<svg width="20" height="21" viewBox="0 0 20 21" fill="none" xmlns="http://www.w3.org/2000/svg">
<path fill-rule="evenodd" clip-rule="evenodd" d="M14.1018 9.00001C13.7568 9.00001 13.4768 8.72001 13.4768 8.37501V6.58584C13.4768 4.83918 12.056 3.41834 10.3093 3.41834H10.296C9.45181 3.41834 8.66098 3.74334 8.06348 4.33584C7.46181 4.93084 7.12931 5.72501 7.12598 6.57168V8.37501C7.12598 8.72001 6.84598 9.00001 6.50098 9.00001C6.15598 9.00001 5.87598 8.72001 5.87598 8.37501V6.58584C5.88098 5.38584 6.34514 4.27834 7.18264 3.44834C8.02098 2.61751 9.12764 2.13668 10.3118 2.16834C12.7451 2.16834 14.7268 4.15001 14.7268 6.58584V8.37501C14.7268 8.72001 14.4468 9.00001 14.1018 9.00001Z" fill="#212121"/>
<path fill-rule="evenodd" clip-rule="evenodd" d="M7.11801 8.94067C5.71967 8.94067 4.58301 10.0773 4.58301 11.4757V15.0498C4.58301 16.4482 5.71967 17.5848 7.11801 17.5848H13.4855C14.883 17.5848 16.0205 16.4482 16.0205 15.0498V11.4757C16.0205 10.0773 14.883 8.94067 13.4855 8.94067H7.11801ZM13.4855 18.8348H7.11801C5.03051 18.8348 3.33301 17.1373 3.33301 15.0498V11.4757C3.33301 9.38817 5.03051 7.69067 7.11801 7.69067H13.4855C15.573 7.69067 17.2705 9.38817 17.2705 11.4757V15.0498C17.2705 17.1373 15.573 18.8348 13.4855 18.8348Z" fill="#212121"/>
<path fill-rule="evenodd" clip-rule="evenodd" d="M10.3018 14.813C9.95676 14.813 9.67676 14.533 9.67676 14.188V12.3372C9.67676 11.9922 9.95676 11.7122 10.3018 11.7122C10.6468 11.7122 10.9268 11.9922 10.9268 12.3372V14.188C10.9268 14.533 10.6468 14.813 10.3018 14.813Z" fill="#212121"/>
</svg>
