<svg width="25" height="24" viewBox="0 0 25 24" fill="none" xmlns="http://www.w3.org/2000/svg">
<path d="M14.9178 8.25C15.5112 8.25 16.0912 8.07405 16.5845 7.74441C17.0779 7.41477 17.4624 6.94623 17.6894 6.39805C17.9165 5.84987 17.9759 5.24667 17.8602 4.66473C17.7444 4.08279 17.4587 3.54824 17.0391 3.12868C16.6196 2.70912 16.085 2.4234 15.5031 2.30765C14.9211 2.19189 14.3179 2.2513 13.7698 2.47836C13.2216 2.70543 12.753 3.08994 12.4234 3.58329C12.0938 4.07664 11.9178 4.65666 11.9178 5.25C11.9178 6.04565 12.2339 6.80871 12.7965 7.37132C13.3591 7.93393 14.1222 8.25 14.9178 8.25ZM14.9178 3.75C15.2145 3.75 15.5045 3.83797 15.7512 4.0028C15.9978 4.16762 16.1901 4.40189 16.3036 4.67598C16.4172 4.95007 16.4469 5.25167 16.389 5.54264C16.3311 5.83361 16.1882 6.10088 15.9785 6.31066C15.7687 6.52044 15.5014 6.6633 15.2104 6.72118C14.9195 6.77906 14.6179 6.74935 14.3438 6.63582C14.0697 6.52229 13.8354 6.33003 13.6706 6.08336C13.5058 5.83668 13.4178 5.54667 13.4178 5.25C13.4178 4.85218 13.5758 4.47065 13.8571 4.18934C14.1384 3.90804 14.52 3.75 14.9178 3.75ZM21.2281 13.1888C21.1709 13.215 20.5259 13.4963 19.3841 13.4963C18.0856 13.4963 16.145 13.1325 13.6944 11.6213C13.3214 12.6801 12.8371 13.6964 12.2497 14.6531C13.3048 14.9779 14.2973 15.4791 15.185 16.1353C16.9728 17.4984 17.9178 19.4391 17.9178 21.75C17.9178 21.9489 17.8388 22.1397 17.6981 22.2803C17.5575 22.421 17.3667 22.5 17.1678 22.5C16.9689 22.5 16.7781 22.421 16.6375 22.2803C16.4968 22.1397 16.4178 21.9489 16.4178 21.75C16.4178 17.8406 13.1656 16.4334 11.3422 15.9516C11.2906 16.0172 11.2372 16.0838 11.1837 16.1484C9.34249 18.3797 7.03531 19.5403 4.46843 19.5403C4.17606 19.5417 3.88381 19.5282 3.59281 19.5C3.39389 19.4801 3.21103 19.382 3.08444 19.2273C2.95786 19.0726 2.89791 18.8739 2.91781 18.675C2.9377 18.4761 3.03579 18.2932 3.19051 18.1666C3.34523 18.0401 3.54389 17.9801 3.74281 18C6.17281 18.2419 8.28687 17.2978 10.0241 15.1875C11.195 13.7681 11.9928 12.0366 12.3912 10.7813C8.74249 8.65781 6.41187 10.4653 6.38656 10.485C6.31016 10.5502 6.22143 10.5995 6.12564 10.6297C6.02985 10.66 5.92896 10.6708 5.82894 10.6613C5.72892 10.6519 5.63182 10.6224 5.54341 10.5747C5.45499 10.527 5.37706 10.462 5.31424 10.3836C5.25142 10.3052 5.205 10.215 5.17771 10.1183C5.15043 10.0216 5.14285 9.92045 5.15543 9.82077C5.168 9.7211 5.20047 9.62497 5.25091 9.53809C5.30135 9.45121 5.36873 9.37534 5.44906 9.315C5.58968 9.2025 8.93843 6.59625 13.8406 9.93094C18.1034 12.8288 20.5841 11.835 20.6075 11.8238C20.6973 11.7813 20.7947 11.7572 20.894 11.7527C20.9933 11.7482 21.0924 11.7635 21.1857 11.7977C21.2791 11.8319 21.3646 11.8843 21.4375 11.9518C21.5104 12.0193 21.5692 12.1007 21.6103 12.1911C21.6515 12.2816 21.6743 12.3793 21.6774 12.4786C21.6805 12.5779 21.6638 12.6769 21.6283 12.7697C21.5929 12.8625 21.5393 12.9473 21.4708 13.0193C21.4022 13.0912 21.3201 13.1488 21.2291 13.1888H21.2281Z" fill="#212121"/>
</svg>
