<svg width="24" height="24" viewBox="0 0 24 24" fill="none" xmlns="http://www.w3.org/2000/svg">
<path fill-rule="evenodd" clip-rule="evenodd" d="M7.21458 16.0029C7.05458 16.0029 6.89358 15.9519 6.75758 15.8479C6.42958 15.5949 6.36758 15.1239 6.62058 14.7959L9.61358 10.9059C9.73558 10.7469 9.91658 10.6439 10.1146 10.6189C10.3166 10.5929 10.5146 10.6489 10.6716 10.7739L13.4916 12.9889L15.9586 9.80587C16.2126 9.47687 16.6826 9.41587 17.0106 9.67187C17.3386 9.92587 17.3986 10.3969 17.1446 10.7239L14.2146 14.5039C14.0926 14.6619 13.9126 14.7649 13.7146 14.7889C13.5146 14.8159 13.3166 14.7579 13.1586 14.6349L10.3406 12.4209L7.80958 15.7099C7.66158 15.9019 7.43958 16.0029 7.21458 16.0029Z" fill="#9E9E9E"/>
<mask id="mask0_7426_10086" style="mask-type:luminance" maskUnits="userSpaceOnUse" x="17" y="2" width="6" height="6">
<path fill-rule="evenodd" clip-rule="evenodd" d="M17.2969 2.00012H22.6409V7.34502H17.2969V2.00012Z" fill="white"/>
</mask>
<g mask="url(#mask0_7426_10086)">
<path fill-rule="evenodd" clip-rule="evenodd" d="M19.9689 3.5C19.3229 3.5 18.7969 4.025 18.7969 4.672C18.7969 5.318 19.3229 5.845 19.9689 5.845C20.6149 5.845 21.1409 5.318 21.1409 4.672C21.1409 4.025 20.6149 3.5 19.9689 3.5ZM19.9689 7.345C18.4959 7.345 17.2969 6.146 17.2969 4.672C17.2969 3.198 18.4959 2 19.9689 2C21.4429 2 22.6409 3.198 22.6409 4.672C22.6409 6.146 21.4429 7.345 19.9689 7.345Z" fill="#9E9E9E"/>
</g>
<mask id="mask1_7426_10086" style="mask-type:luminance" maskUnits="userSpaceOnUse" x="2" y="2" width="20" height="21">
<path fill-rule="evenodd" clip-rule="evenodd" d="M2 2.84216H21.8619V22.7032H2V2.84216Z" fill="white"/>
</mask>
<g mask="url(#mask1_7426_10086)">
<path fill-rule="evenodd" clip-rule="evenodd" d="M16.233 22.7032H7.629C4.262 22.7032 2 20.3382 2 16.8182V8.73616C2 5.21116 4.262 2.84216 7.629 2.84216H14.897C15.311 2.84216 15.647 3.17816 15.647 3.59216C15.647 4.00616 15.311 4.34216 14.897 4.34216H7.629C5.121 4.34216 3.5 6.06616 3.5 8.73616V16.8182C3.5 19.5232 5.082 21.2032 7.629 21.2032H16.233C18.741 21.2032 20.362 19.4822 20.362 16.8182V9.77916C20.362 9.36516 20.698 9.02916 21.112 9.02916C21.526 9.02916 21.862 9.36516 21.862 9.77916V16.8182C21.862 20.3382 19.6 22.7032 16.233 22.7032Z" fill="#9E9E9E"/>
</g>
</svg>
