<svg width="25" height="24" viewBox="0 0 25 24" fill="none" xmlns="http://www.w3.org/2000/svg">
<mask id="mask0_7426_10107" style="mask-type:luminance" maskUnits="userSpaceOnUse" x="2" y="2" width="20" height="21">
<path fill-rule="evenodd" clip-rule="evenodd" d="M2.19922 2.00049H21.4841V22.7215H2.19922V2.00049Z" fill="white"/>
</mask>
<g mask="url(#mask0_7426_10107)">
<path fill-rule="evenodd" clip-rule="evenodd" d="M7.40154 17.4405C7.63054 17.4405 7.85954 17.4695 8.08354 17.5295C8.75954 17.7115 9.34654 18.1635 9.69454 18.7705C9.92054 19.1515 10.0455 19.5965 10.0495 20.0505C10.0495 20.7005 10.5715 21.2215 11.2135 21.2215H12.4665C13.1055 21.2215 13.6275 20.7035 13.6305 20.0645C13.6265 19.3585 13.9025 18.6875 14.4075 18.1825C14.9055 17.6845 15.6015 17.3855 16.2975 17.4055C16.7535 17.4165 17.1925 17.5395 17.5795 17.7595C18.1365 18.0785 18.8475 17.8885 19.1695 17.3385L19.8335 16.2315C19.9815 15.9765 20.0245 15.6565 19.9455 15.3615C19.8675 15.0665 19.6715 14.8105 19.4075 14.6595C18.7895 14.3035 18.3485 13.7295 18.1655 13.0415C17.9845 12.3665 18.0835 11.6295 18.4365 11.0225C18.6665 10.6225 19.0035 10.2855 19.4075 10.0535C19.9495 9.73649 20.1395 9.02749 19.8245 8.47549C19.8115 8.45349 19.7995 8.43049 19.7895 8.40649L19.2035 7.39049C18.8845 6.83549 18.1745 6.64449 17.6175 6.96149C17.0155 7.31749 16.2995 7.41949 15.6115 7.23849C14.9245 7.06049 14.3485 6.62549 13.9895 6.01149C13.7595 5.62749 13.6345 5.18049 13.6305 4.72549C13.6395 4.38349 13.5195 4.07649 13.3015 3.85149C13.0845 3.62749 12.7795 3.50049 12.4665 3.50049H11.2135C10.9035 3.50049 10.6135 3.62149 10.3945 3.83949C10.1765 4.05849 10.0575 4.34949 10.0595 4.65949C10.0385 6.12149 8.84354 7.29849 7.39654 7.29849C6.93254 7.29349 6.48554 7.16849 6.09754 6.93649C5.55254 6.62649 4.84054 6.81749 4.52154 7.37249L3.84454 8.48549C3.53454 9.02349 3.72454 9.73449 4.27654 10.0555C5.09554 10.5295 5.60654 11.4135 5.60654 12.3615C5.60654 13.3095 5.09554 14.1925 4.27454 14.6675C3.72554 14.9855 3.53554 15.6925 3.85354 16.2425L4.48454 17.3305C4.64054 17.6115 4.89554 17.8145 5.19054 17.8975C5.48454 17.9795 5.80854 17.9445 6.07854 17.7945C6.47554 17.5615 6.93754 17.4405 7.40154 17.4405ZM12.4665 22.7215H11.2135C9.74454 22.7215 8.54954 21.5275 8.54954 20.0585C8.54754 19.8775 8.49554 19.6895 8.39854 19.5265C8.24154 19.2525 7.98754 19.0565 7.69454 18.9785C7.40354 18.9005 7.08454 18.9435 6.82254 19.0955C6.19454 19.4455 5.45554 19.5305 4.77954 19.3405C4.10454 19.1495 3.52154 18.6855 3.17954 18.0705L2.55454 16.9935C1.82354 15.7255 2.25854 14.1005 3.52454 13.3685C3.88354 13.1615 4.10654 12.7755 4.10654 12.3615C4.10654 11.9475 3.88354 11.5605 3.52454 11.3535C2.25754 10.6175 1.82354 8.98849 2.55354 7.72049L3.23154 6.60749C3.95254 5.35349 5.58254 4.91149 6.85354 5.64149C7.02654 5.74449 7.21454 5.79649 7.40554 5.79849C8.02854 5.79849 8.54954 5.28449 8.55954 4.65249C8.55554 3.95549 8.83054 3.28649 9.33154 2.78149C9.83454 2.27749 10.5025 2.00049 11.2135 2.00049H12.4665C13.1825 2.00049 13.8785 2.29449 14.3775 2.80549C14.8755 3.31949 15.1505 4.02449 15.1295 4.73949C15.1315 4.90049 15.1845 5.08649 15.2805 5.24949C15.4395 5.51949 15.6905 5.70949 15.9885 5.78749C16.2865 5.86149 16.5985 5.82149 16.8635 5.66449C18.1435 4.93349 19.7725 5.37149 20.5035 6.64149L21.1265 7.72049C21.1425 7.74949 21.1565 7.77749 21.1685 7.80649C21.8305 9.05749 21.3885 10.6325 20.1585 11.3515C19.9795 11.4545 19.8345 11.5985 19.7345 11.7725C19.5795 12.0415 19.5365 12.3615 19.6145 12.6555C19.6945 12.9555 19.8855 13.2045 20.1545 13.3585C20.7615 13.7075 21.2145 14.2955 21.3955 14.9745C21.5765 15.6525 21.4775 16.3885 21.1245 16.9955L20.4605 18.1015C19.7295 19.3575 18.1005 19.7925 16.8335 19.0605C16.6645 18.9635 16.4695 18.9105 16.2755 18.9055H16.2695C15.9805 18.9055 15.6835 19.0285 15.4675 19.2435C15.2485 19.4625 15.1285 19.7545 15.1305 20.0645C15.1235 21.5335 13.9285 22.7215 12.4665 22.7215Z" fill="#9E9E9E"/>
</g>
<path fill-rule="evenodd" clip-rule="evenodd" d="M11.843 10.4746C10.803 10.4746 9.95703 11.3216 9.95703 12.3616C9.95703 13.4016 10.803 14.2466 11.843 14.2466C12.883 14.2466 13.729 13.4016 13.729 12.3616C13.729 11.3216 12.883 10.4746 11.843 10.4746ZM11.843 15.7466C9.97603 15.7466 8.45703 14.2286 8.45703 12.3616C8.45703 10.4946 9.97603 8.97461 11.843 8.97461C13.71 8.97461 15.229 10.4946 15.229 12.3616C15.229 14.2286 13.71 15.7466 11.843 15.7466Z" fill="#9E9E9E"/>
</svg>
